<svg xmlns="http://www.w3.org/2000/svg" version="1.1" xmlns:xlink="http://www.w3.org/1999/xlink" xmlns:svgjs="http://svgjs.dev/svgjs" width="1000" height="1125" viewBox="0 0 1000 1125"><g transform="matrix(1,0,0,1,1.7053025658242404e-13,0)"><svg viewBox="0 0 320 360" data-background-color="#ffffff" preserveAspectRatio="xMidYMid meet" height="1125" width="1000" xmlns="http://www.w3.org/2000/svg" xmlns:xlink="http://www.w3.org/1999/xlink"><g id="tight-bounds" transform="matrix(1,0,0,1,0,0)"><svg viewBox="0 0 320 360" height="360" width="320"><g><svg></svg></g><g><svg viewBox="0 0 320 360" height="360" width="320"><g><path xmlns="http://www.w3.org/2000/svg" d="M20.961 227.22l3.726 4.658-1.863-6.056c-0.466-2.795-3.726 0.466-1.863 1.398M25.153 224.425c1.397 2.329 2.795 4.658 2.795 6.987 0 3.261 2.795 4.658 5.123 5.589-3.261-3.726-5.124-13.974-7.918-12.576M204.017 26.929c7.918 0 15.371-0.932 23.756 0.931 20.495 5.124 37.729 15.371 49.374 29.811l32.606 52.169c1.397 13.042 4.192 27.482 3.726 43.319 3.261 0 2.795-4.658 6.521-5.59-3.726 9.316-5.59 20.961-6.521 34.469-2.329-7.453 0-18.632 0.466-24.687-3.261 5.124-5.124 1.397-5.124-0.932 0.466-3.726-1.397-3.261-2.795-4.658-5.124-4.658-8.384-9.782-12.11-17.7 2.329-6.055 2.795-14.905-4.658-19.563-2.329-1.397-5.124-3.726-6.521-7.453-1.863-5.124-5.124-11.179-4.193-19.097 0.466-2.329-6.987 5.124-11.179 1.863-18.166-12.576-36.332-27.016-58.224-39.127-11.645 0-20.029-4.192-24.221-9.316-3.726-4.658-0.932-10.713 4.658-11.179 3.261 0 6.987-0.932 9.782 0.932 0.466-1.863 2.329-4.192 4.657-4.192M157.904 16.215l0.932 0.466c4.658 0.932 6.987 7.453 12.11 5.124 0 3.261 0.466 6.521-0.466 8.85-1.397 3.726-5.59 3.726-8.85 3.726-31.208-1.863-49.374 11.179-68.471 22.358-5.124 3.261-10.713 5.59-14.906 9.782-20.029 18.632-41.921 35.866-47.045 70.335l-4.192 38.195c-0.466 4.192-5.124 8.384-4.192 13.508l3.26 22.824c-3.261-3.261-5.124 0.932-4.192 2.795 0.466 1.397 2.329 6.055 5.124 1.863 3.726 6.987 7.453 20.495 12.576 26.55 15.837 18.632 36.332 35.4 53.101 52.169 4.192-0.932 7.453-0.932 8.384-3.727 1.397 2.795-1.397 5.59-3.726 6.056 7.453 4.658 15.837 8.85 27.016 9.781 14.44 0.932 27.948 3.261 40.524 6.522 6.521-1.863 13.042-2.795 20.029-3.261 2.329 0 3.726-3.726 6.521-4.658l0.466-4.658c2.795 4.192 2.329-1.397 0.466-4.192 3.261 2.795 4.192 5.124 5.589 6.987 0-1.397 3.726-6.521 3.727-0.466l0.931-6.055c1.397-0.932 1.863 5.124 3.261 0.931 1.397-4.192 4.192-0.932 6.987-2.329-0.932 1.863-0.466 5.59 2.794 3.261l3.727-3.261c2.329 5.59 6.055 3.261 7.918 2.329 20.495-13.042 40.99-28.413 60.553-43.784l-0.466 6.055 2.329-7.453c2.329 2.329 4.192 0.466 5.124-0.931 2.795-4.658 6.521-9.316 12.577-13.508-7.453 20.029-16.303 35.866-27.482 48.908l-4.658 5.59c0 3.261-0.932 7.453-4.658 7.918-1.863 0.466-5.59-0.932-8.384 1.863-1.397 1.863 3.261 5.59-0.466 2.795-3.261-2.329-6.521 0-10.248 0.932-2.795 0.932 1.863 3.726 2.795 5.589 0.932 1.863 1.863 3.726 1.398 6.056l-5.124-5.59c-6.055 3.261-9.782 9.316-14.906 13.974-2.329 1.863-1.397 5.124-1.397 7.918-3.261 0-6.987-0.932-8.85 0.932-1.397 1.863-0.932 4.658-0.932 7.453-4.658-0.466-5.124-7.453-9.315-6.056-4.192 0.932-8.85 1.397-12.577 3.727 2.795 5.59-4.658 2.329-3.726 3.26-6.987-4.192-13.042-7.453-20.495-4.658-15.837-5.124-35.4-2.795-49.84-0.931 0-2.329 0.466-4.658-0.466-5.124-0.932 2.329-3.726 1.397-3.26 1.397-8.85-6.055-17.7-9.782-27.016-14.905-8.384 0.932-16.303-3.261-18.632-5.59-6.521-6.055-13.974-2.795-20.029-4.192-13.042-3.261-17.7-16.769-19.098-26.084-0.932-4.658-4.658-6.521-6.055-6.056-6.055-19.563-15.371-37.263-22.824-55.429-1.863-4.658-1.397-9.316-1.397-14.44 2.329 0.932 4.658 0.466 4.192-2.794-2.329-15.371-7.918-27.016-13.974-38.195 3.261-15.837 3.726-34.469 11.179-48.443 6.521-12.576 18.632-19.098 27.016-29.811 2.795-3.726 2.795-8.85 5.59-12.11 9.316-9.316 18.632-19.098 28.879-27.482 4.658-3.726 10.247 0 17.234-1.397 2.329-8.384 11.645-15.837 20.495-13.508 3.726 0.932 11.179-8.85 13.508-9.782 3.726-1.397 1.863 3.726 1.863 6.987 8.85-6.987 20.961-10.713 32.14-14.906" fill="#f57500" fill-rule="nonzero" stroke="none" stroke-width="1" stroke-linecap="butt" stroke-linejoin="miter" stroke-miterlimit="10" stroke-dasharray="" stroke-dashoffset="0" font-family="none" font-weight="none" font-size="none" text-anchor="none" style="mix-blend-mode: normal" data-fill-palette-color="tertiary"></path></g><g transform="matrix(1,0,0,1,64,103.19551764628349)"><svg viewBox="0 0 192 153.60896470743302" height="153.60896470743302" width="192"><g><svg viewBox="0 0 192 153.60896470743302" height="153.60896470743302" width="192"><g><svg viewBox="0 0 192 153.60896470743302" height="153.60896470743302" width="192"><g transform="matrix(1,0,0,1,0,55.9312929739839)"><svg viewBox="0 0 192 97.6776717334491" height="97.6776717334491" width="192"><g id="textblocktransform"><svg viewBox="0 0 192 97.6776717334491" height="97.6776717334491" width="192" id="textblock"><g><svg viewBox="0 0 192 64.90267983074753" height="64.90267983074753" width="192"><g transform="matrix(1,0,0,1,0,0)"><svg width="192" viewBox="2.5 -35.599998474121094 106.33999633789062 35.94999694824219" height="64.90267983074753" data-palette-color="#f57500"><path d="M32.2-12.85Q32.6-12.85 32.75-12.68 32.9-12.5 32.9-11.95L32.9-11.95Q32.9-8.7 31.08-5.95 29.25-3.2 26.13-1.55 23 0.1 19.25 0.1L19.25 0.1Q15 0.1 11.2-1.58 7.4-3.25 4.95-6.95 2.5-10.65 2.5-16.45L2.5-16.45Q2.5-22.2 4.83-26.58 7.15-30.95 10.95-33.27 14.75-35.6 19.05-35.6L19.05-35.6Q22.25-35.6 24.88-34.13 27.5-32.65 29.45-29.9L29.45-29.9 29.4-34.6Q29.4-34.95 29.63-35.15 29.85-35.35 30.2-35.35L30.2-35.35Q30.6-35.35 30.83-35.18 31.05-35 31.05-34.65L31.05-34.65 31.05-28.15Q31.05-27.8 30.8-27.58 30.55-27.35 30.2-27.35L30.2-27.35Q29.85-27.35 29.63-27.45 29.4-27.55 29.15-27.9L29.15-27.9Q26.95-31.05 24.6-32.55 22.25-34.05 19.05-34.05L19.05-34.05Q15.25-34.05 11.78-31.78 8.3-29.5 6.18-25.48 4.05-21.45 4.05-16.45L4.05-16.45Q4.05-11.3 6.28-7.93 8.5-4.55 11.95-3 15.4-1.45 19.25-1.45L19.25-1.45Q22.35-1.45 25.15-2.88 27.95-4.3 29.68-6.73 31.4-9.15 31.4-11.95L31.4-11.95Q31.4-12.35 31.63-12.6 31.85-12.85 32.2-12.85L32.2-12.85ZM60.3-1.7Q60.8-1.65 61.02-1.53 61.25-1.4 61.25-0.95L61.25-0.95Q61.25-0.15 60.5-0.15L60.5-0.15Q58.5-0.15 57.62-0.95 56.75-1.75 56.35-3.9L56.35-3.9Q55.2-1.9 53.07-0.78 50.95 0.35 47.9 0.35L47.9 0.35Q43.6 0.35 41.15-1.65 38.7-3.65 37.8-6.4 36.9-9.15 36.9-11.8L36.9-11.8Q36.9-14.9 38.1-17.82 39.3-20.75 41.82-22.65 44.35-24.55 48.1-24.55L48.1-24.55Q51.2-24.55 53.22-23.35 55.25-22.15 56.5-19.7L56.5-19.7 57-23.35Q57.1-23.85 57.22-24.05 57.35-24.25 57.75-24.25L57.75-24.25Q58.2-24.25 58.47-24.03 58.75-23.8 58.7-23.5L58.7-23.5Q58.25-21.2 58-17.95L58-17.95Q57.8-15.65 57.8-11.75L57.8-11.75 57.8-8.35Q57.8-5.5 57.95-4.2 58.1-2.9 58.62-2.35 59.15-1.8 60.3-1.7L60.3-1.7ZM47.65-1.25Q51.2-1.25 53.67-3.08 56.15-4.9 56.2-8.4L56.2-8.4Q56.25-10.95 56.25-14.25L56.25-14.25Q56.25-17.65 54.82-19.6 53.4-21.55 51.52-22.28 49.65-23 48.1-23L48.1-23Q44.7-23 42.52-21.13 40.35-19.25 39.4-16.65 38.45-14.05 38.45-11.8L38.45-11.8Q38.45-9.6 39.2-7.2 39.95-4.8 42-3.03 44.05-1.25 47.65-1.25L47.65-1.25ZM78.95-25.5Q82.3-25.5 83.87-23.53 85.45-21.55 85.45-18.9L85.45-18.9Q85.45-16.3 84.05-14.98 82.65-13.65 80.7-13.65L80.7-13.65Q80.09-13.65 79.87-13.83 79.65-14 79.65-14.4L79.65-14.4Q79.65-14.8 79.84-14.98 80.05-15.15 80.45-15.2L80.45-15.2Q81.95-15.35 82.92-16.03 83.9-16.7 83.9-18.85L83.9-18.85Q83.9-20.85 82.8-22.4 81.7-23.95 78.9-23.95L78.9-23.95Q75.25-23.95 73.45-20.7 71.65-17.45 71.2-11.4L71.2-11.4Q71-8.7 71-3.5L71-3.5 71-0.7Q71 0.35 70.2 0.35L70.2 0.35Q69.8 0.35 69.62 0.13 69.45-0.1 69.45-0.65L69.45-0.65 69.34-11.3Q69.3-16.55 68.59-24.25L68.59-24.25 68.5-25.35 68.5-25.45Q68.5-25.8 68.75-26 69-26.2 69.34-26.2L69.34-26.2Q70.09-26.2 70.09-25.35L70.09-25.35 70.59-16.35Q71.09-21.1 73.37-23.3 75.65-25.5 78.95-25.5L78.95-25.5ZM100.94 0.1Q97.59 0.1 95.54-1.5 93.49-3.1 91.79-5.85L91.79-5.85Q91.44-6.4 91.44-6.65L91.44-6.65Q91.44-7 91.72-7.25 91.99-7.5 92.39-7.5L92.39-7.5Q92.69-7.5 92.89-7.28 93.09-7.05 93.49-6.3L93.49-6.3Q96.24-1.45 100.99-1.45L100.99-1.45Q103.79-1.45 105.54-2.88 107.29-4.3 107.29-6.35L107.29-6.35Q107.29-7.8 106.37-8.78 105.44-9.75 104.09-10.35 102.74-10.95 100.44-11.75L100.44-11.75Q97.79-12.65 96.14-13.43 94.49-14.2 93.37-15.53 92.24-16.85 92.24-18.9L92.24-18.9Q92.24-20.65 93.09-22.23 93.94-23.8 95.69-24.83 97.44-25.85 100.04-25.85L100.04-25.85Q103.74-25.85 106.12-23.85 108.49-21.85 108.49-18.7L108.49-18.7Q108.49-18.05 108.32-17.82 108.14-17.6 107.74-17.6L107.74-17.6Q106.89-17.6 106.89-18.5L106.89-18.5Q106.89-21.5 104.84-22.9 102.79-24.3 99.99-24.3L99.99-24.3Q96.54-24.3 95.19-22.55 93.84-20.8 93.84-18.95L93.84-18.95Q93.84-17.45 94.79-16.43 95.74-15.4 97.14-14.73 98.54-14.05 100.89-13.25L100.89-13.25Q103.49-12.3 105.07-11.55 106.64-10.8 107.74-9.53 108.84-8.25 108.84-6.4L108.84-6.4Q108.84-4.65 107.89-3.18 106.94-1.7 105.14-0.8 103.34 0.1 100.94 0.1L100.94 0.1Z" opacity="1" transform="matrix(1,0,0,1,0,0)" fill="#f57500" class="undefined-text-0" data-fill-palette-color="primary" id="text-0"></path></svg></g></svg></g><g transform="matrix(1,0,0,1,0,74.37353848236953)"><svg viewBox="0 0 192 23.304133251079577" height="23.304133251079577" width="192"><g transform="matrix(1,0,0,1,0,0)"><svg width="192" viewBox="4.449999809265137 -38.849998474121094 324.16998291015625 39.349998474121094" height="23.304133251079577" data-palette-color="#f57500"><path d="M9.9 0L4.45 0 4.45-36.25 26.15-36.25 26.15-31.2 9.9-31.2 9.9-20.25 24.1-20.25 24.1-15.15 9.9-15.15 9.9 0ZM29.2-28.9L29.2-28.9Q29.2-30.1 30.07-30.9 30.95-31.7 31.95-31.7L31.95-31.7Q32.95-31.7 33.8-30.9 34.65-30.1 34.65-28.9L34.65-28.9Q34.65-27.7 33.8-26.93 32.95-26.15 31.95-26.15L31.95-26.15Q30.95-26.15 30.07-26.93 29.2-27.7 29.2-28.9ZM34-20.9L34 0 29.75 0 29.75-20.9 34-20.9ZM40 0L40-20.9 43.75-20.9Q43.85-19.35 43.92-18.07 44-16.8 44.1-15.55L44.1-15.55Q45.25-18.25 47.37-19.85 49.5-21.45 52.6-21.45L52.6-21.45Q55.75-21.45 57.65-19.7 59.55-17.95 59.65-15.2L59.65-15.2 59.65 0 55.35 0 55.35-13.25Q55.25-14.85 54.25-15.98 53.25-17.1 51.1-17.2L51.1-17.2Q49.6-17.2 48.35-16.68 47.1-16.15 46.2-15.25 45.3-14.35 44.77-13.1 44.25-11.85 44.25-10.35L44.25-10.35 44.25 0 40 0ZM64.04-10.45L64.04-10.45Q64.04-12.9 64.87-14.93 65.69-16.95 67.14-18.4 68.59-19.85 70.57-20.65 72.54-21.45 74.84-21.45L74.84-21.45Q76.39-21.45 77.62-21.08 78.84-20.7 79.72-20.18 80.59-19.65 81.19-19 81.79-18.35 82.09-17.85L82.09-17.85 82.09-38.85 86.39-38.85 86.39 0 82.09 0 82.09-1.55Q82.09-1.85 82.14-2.23 82.19-2.6 82.19-2.85L82.19-2.85Q81.69-2.25 81.02-1.68 80.34-1.1 79.44-0.6 78.54-0.1 77.37 0.2 76.19 0.5 74.69 0.5L74.69 0.5Q72.19 0.5 70.22-0.38 68.24-1.25 66.87-2.73 65.49-4.2 64.77-6.2 64.04-8.2 64.04-10.45ZM68.34-10.5L68.34-10.5Q68.34-9.05 68.87-7.8 69.39-6.55 70.29-5.65 71.19-4.75 72.44-4.23 73.69-3.7 75.19-3.7L75.19-3.7Q76.69-3.7 77.97-4.23 79.24-4.75 80.17-5.68 81.09-6.6 81.59-7.83 82.09-9.05 82.09-10.5L82.09-10.5Q82.09-11.95 81.59-13.18 81.09-14.4 80.17-15.3 79.24-16.2 77.97-16.73 76.69-17.25 75.19-17.25L75.19-17.25Q73.69-17.25 72.44-16.73 71.19-16.2 70.29-15.3 69.39-14.4 68.87-13.18 68.34-11.95 68.34-10.5ZM126.34-36.25L112.99-11.95 112.99 0 107.49 0 107.49-11.95Q107.14-12.5 106.11-14.35 105.09-16.2 103.71-18.73 102.34-21.25 100.76-24.1 99.19-26.95 97.81-29.48 96.44-32 95.41-33.85 94.39-35.7 94.04-36.25L94.04-36.25 100.24-36.25Q100.69-35.5 101.84-33.38 102.99-31.25 104.39-28.58 105.79-25.9 107.24-23.18 108.69-20.45 109.69-18.5L109.69-18.5 110.24-16.85Q110.44-17.25 110.59-17.68 110.74-18.1 110.89-18.5L110.89-18.5Q111.94-20.45 113.34-23.18 114.74-25.9 116.11-28.58 117.49-31.25 118.61-33.38 119.74-35.5 120.19-36.25L120.19-36.25 126.34-36.25ZM121.14-10.5L121.14-10.5Q121.14-12.75 122.01-14.75 122.89-16.75 124.39-18.23 125.89-19.7 127.91-20.58 129.94-21.45 132.29-21.45L132.29-21.45Q134.64-21.45 136.66-20.58 138.69-19.7 140.16-18.23 141.64-16.75 142.46-14.75 143.29-12.75 143.29-10.5L143.29-10.5Q143.29-8.25 142.46-6.25 141.64-4.25 140.16-2.75 138.69-1.25 136.66-0.38 134.64 0.5 132.24 0.5L132.24 0.5Q129.94 0.5 127.91-0.3 125.89-1.1 124.39-2.55 122.89-4 122.01-6.03 121.14-8.05 121.14-10.5ZM125.39-10.45L125.39-10.45Q125.39-9.05 125.91-7.83 126.44-6.6 127.36-5.68 128.29-4.75 129.51-4.23 130.74-3.7 132.14-3.7L132.14-3.7Q133.54-3.7 134.79-4.23 136.04-4.75 136.96-5.68 137.89-6.6 138.44-7.83 138.99-9.05 138.99-10.45L138.99-10.45Q138.99-11.85 138.44-13.1 137.89-14.35 136.96-15.28 136.04-16.2 134.79-16.73 133.54-17.25 132.14-17.25L132.14-17.25Q130.74-17.25 129.51-16.73 128.29-16.2 127.36-15.28 126.44-14.35 125.91-13.1 125.39-11.85 125.39-10.45ZM167.28-20.9L167.28 0.45 163.68 0.45 163.18-5.35Q162.03-2.8 159.96-1.15 157.88 0.5 154.68 0.5L154.68 0.5Q151.48 0.5 149.61-1.23 147.73-2.95 147.63-5.75L147.63-5.75 147.63-20.9 151.88-20.9 151.88-7.65Q151.98-6.1 153.01-5 154.03-3.9 156.18-3.75L156.18-3.75Q157.68-3.75 158.93-4.28 160.18-4.8 161.08-5.7 161.98-6.6 162.48-7.85 162.98-9.1 162.98-10.6L162.98-10.6 162.98-20.9 167.28-20.9ZM185.73-21.45L184.78-15.95Q183.38-15.95 182.08-15.58 180.78-15.2 179.76-14.45 178.73-13.7 178.13-12.58 177.53-11.45 177.53-10L177.53-10 177.53 0 173.28 0 173.28-20.9 177.03-20.9Q177.13-19.35 177.21-18.07 177.28-16.8 177.38-15.55L177.38-15.55Q178.03-16.9 179.08-18 180.13-19.1 181.33-19.85 182.53-20.6 183.68-21.03 184.83-21.45 185.73-21.45L185.73-21.45ZM195.73 0L195.73-36.25 204.83-36.25Q210.33-36.25 214.13-34.6 217.93-32.95 220.3-30.28 222.68-27.6 223.75-24.28 224.83-20.95 224.83-17.65L224.83-17.65Q224.83-13.6 223.38-10.33 221.93-7.05 219.43-4.75 216.93-2.45 213.63-1.23 210.33 0 206.63 0L206.63 0 195.73 0ZM201.18-5.2L205.83-5.2Q208.73-5.2 211.2-6.05 213.68-6.9 215.5-8.53 217.33-10.15 218.35-12.53 219.38-14.9 219.38-18L219.38-18Q219.38-21.3 218.23-23.75 217.08-26.2 215.23-27.83 213.38-29.45 211.05-30.23 208.73-31 206.33-31L206.33-31 201.18-31 201.18-5.2ZM241.57-21.45L240.62-15.95Q239.22-15.95 237.92-15.58 236.62-15.2 235.6-14.45 234.57-13.7 233.97-12.58 233.37-11.45 233.37-10L233.37-10 233.37 0 229.12 0 229.12-20.9 232.87-20.9Q232.97-19.35 233.05-18.07 233.12-16.8 233.22-15.55L233.22-15.55Q233.87-16.9 234.92-18 235.97-19.1 237.17-19.85 238.37-20.6 239.52-21.03 240.67-21.45 241.57-21.45L241.57-21.45ZM258.77-5.55L261.97-2.45Q260.47-1.1 258.32-0.3 256.17 0.5 253.92 0.5L253.92 0.5Q251.62 0.5 249.6-0.38 247.57-1.25 246.07-2.73 244.57-4.2 243.7-6.2 242.82-8.2 242.82-10.45L242.82-10.45Q242.82-12.7 243.7-14.7 244.57-16.7 246.07-18.2 247.57-19.7 249.55-20.58 251.52-21.45 253.77-21.45L253.77-21.45Q257.32-21.45 259.95-19.33 262.57-17.2 263.72-13.75L263.72-13.75Q262.17-13.2 260.17-12.4 258.17-11.6 256.02-10.73 253.87-9.85 251.72-9 249.57-8.15 247.72-7.45L247.72-7.45Q248.57-5.75 250.2-4.73 251.82-3.7 253.82-3.7L253.82-3.7Q255.17-3.7 256.55-4.2 257.92-4.7 258.77-5.55L258.77-5.55ZM258.37-14.75L258.37-14.75Q257.77-16 256.47-16.63 255.17-17.25 253.82-17.25L253.82-17.25Q252.37-17.25 251.15-16.7 249.92-16.15 249.02-15.23 248.12-14.3 247.6-13.1 247.07-11.9 247.07-10.65L247.07-10.65Q247.07-10.4 247.1-10.3 247.12-10.2 247.12-10.15L247.12-10.15Q248.42-10.65 249.95-11.28 251.47-11.9 252.97-12.53 254.47-13.15 255.87-13.73 257.27-14.3 258.37-14.75ZM265.97-10.25L265.97-10.25Q265.97-12.55 266.84-14.58 267.72-16.6 269.22-18.13 270.72-19.65 272.69-20.55 274.67-21.45 276.92-21.45L276.92-21.45Q278.42-21.45 279.67-21.08 280.92-20.7 281.82-20.15 282.72-19.6 283.27-19 283.82-18.4 284.02-17.95L284.02-17.95 284.22-20.9 288.32-20.9 288.32 0 284.02 0 284.02-2.65Q283.77-2.25 283.22-1.7 282.67-1.15 281.79-0.68 280.92-0.2 279.72 0.15 278.52 0.5 276.97 0.5L276.97 0.5Q274.57 0.5 272.54-0.38 270.52-1.25 269.07-2.73 267.62-4.2 266.79-6.15 265.97-8.1 265.97-10.25ZM270.27-10.5L270.27-10.5Q270.27-9.05 270.79-7.8 271.32-6.55 272.22-5.65 273.12-4.75 274.37-4.23 275.62-3.7 277.12-3.7L277.12-3.7Q278.62-3.7 279.89-4.23 281.17-4.75 282.09-5.68 283.02-6.6 283.52-7.83 284.02-9.05 284.02-10.5L284.02-10.5Q284.02-11.95 283.52-13.18 283.02-14.4 282.09-15.3 281.17-16.2 279.89-16.73 278.62-17.25 277.12-17.25L277.12-17.25Q275.62-17.25 274.37-16.73 273.12-16.2 272.22-15.3 271.32-14.4 270.79-13.18 270.27-11.95 270.27-10.5ZM294.32 0L294.32-20.9 298.07-20.9Q298.17-19.35 298.24-18.07 298.32-16.8 298.42-15.55L298.42-15.55Q299.57-18.25 301.44-19.83 303.32-21.4 306.47-21.45L306.47-21.45Q309.52-21.45 311.37-19.9 313.22-18.35 313.52-15.85L313.52-15.85Q314.77-18.4 316.59-19.9 318.42-21.4 321.52-21.45L321.52-21.45Q324.77-21.45 326.64-19.7 328.52-17.95 328.62-15.2L328.62-15.2 328.62 0 324.32 0 324.32-13.25Q324.22-14.85 323.24-15.98 322.27-17.1 320.07-17.2L320.07-17.2Q317.07-17.2 315.37-15.28 313.67-13.35 313.57-10.35L313.57-10.35 313.57 0 309.32 0 309.32-13.25Q309.22-14.85 308.19-15.98 307.17-17.1 305.07-17.2L305.07-17.2Q303.57-17.2 302.37-16.68 301.17-16.15 300.32-15.25 299.47-14.35 299.02-13.1 298.57-11.85 298.57-10.35L298.57-10.35 298.57 0 294.32 0Z" opacity="1" transform="matrix(1,0,0,1,0,0)" fill="#f57500" class="undefined-text-1" data-fill-palette-color="secondary" id="text-1"></path></svg></g></svg></g></svg></g></svg></g><g transform="matrix(1,0,0,1,36.672,0)"><svg viewBox="0 0 118.656 46.4604343223619" height="46.4604343223619" width="118.656"><g><svg xmlns="http://www.w3.org/2000/svg" xmlns:xlink="http://www.w3.org/1999/xlink" version="1.1" x="0" y="0" viewBox="0.9809999465942383 31.281658172607422 97.87199401855469 38.32233810424805" enable-background="new 0 0 100 100" xml:space="preserve" height="46.4604343223619" width="118.656" class="icon-icon-0" data-fill-palette-color="accent" id="icon-0"><g fill="#f57500" data-fill-palette-color="accent"><path d="M87.084 69.604c-6.49 0-11.77-5.279-11.77-11.769 0-6.49 5.279-11.77 11.77-11.77 6.489 0 11.769 5.279 11.769 11.77C98.853 64.324 93.573 69.604 87.084 69.604zM87.084 50.154c-4.235 0-7.682 3.445-7.682 7.681s3.446 7.681 7.682 7.681c4.233 0 7.679-3.445 7.679-7.681S91.317 50.154 87.084 50.154z" fill="#f57500" data-fill-palette-color="accent"></path></g><circle cx="87.083" cy="57.835" r="2.2" fill="#f57500" data-fill-palette-color="accent"></circle><g fill="#f57500" data-fill-palette-color="accent"><path d="M11.259 69.604c-5.667 0-10.278-4.61-10.278-10.279 0-5.667 4.611-10.277 10.278-10.277 5.667 0 10.278 4.61 10.278 10.277C21.538 64.993 16.926 69.604 11.259 69.604zM11.259 53.135c-3.413 0-6.189 2.778-6.189 6.189 0 3.413 2.776 6.191 6.189 6.191s6.189-2.778 6.189-6.191C17.449 55.913 14.672 53.135 11.259 53.135z" fill="#f57500" data-fill-palette-color="accent"></path></g><circle cx="11.259" cy="59.324" r="2.2" fill="#f57500" data-fill-palette-color="accent"></circle><g fill="#f57500" data-fill-palette-color="accent"><path d="M92.654 45.716c-3.295-6.646-13.491-9.605-19.928-8.845-1.642-3.418-4.855-5.621-9.268-5.589 0 0-15.307 0.928-22.704 2.1l-3.332 0.388c-0.561 0.065-0.962 0.573-0.897 1.134l0.019 0.158c0.065 0.561 0.573 0.962 1.133 0.897l0.315-0.037-3.267 4.749c-9.201 0.601-16.363 1.068-16.466 1.073-4.57 0.21-5.241 3.07-5.241 3.07l-1.207 2.971c6.182 0.27 11.128 5.381 11.128 11.629 0 0.499-0.035 0.991-0.097 1.476h51.449c-0.221-0.954-0.341-1.945-0.341-2.968 0-7.24 5.891-13.131 13.132-13.131 1.92 0 3.744 0.417 5.39 1.162C92.667 46.04 92.752 45.911 92.654 45.716zM44.359 39.834l-5.669 0.352 2.094-3.027c0.811-1.389 1.738-1.651 2.866-1.741l15.224-1.22c2.085-0.166 4.799 0.181 5.24 4.552-0.498 0.033-1.009 0.066-1.529 0.101L44.359 39.834z" fill="#f57500" data-fill-palette-color="accent"></path></g></svg></g></svg></g><g></g></svg></g></svg></g></svg></g></svg></g><defs></defs></svg><rect width="320" height="360" fill="none" stroke="none" visibility="hidden"></rect></g></svg></g></svg>